<svg width="55" height="55" viewBox="0 0 55 55" fill="none" xmlns="http://www.w3.org/2000/svg">
<path d="M27.8247 32.0757L25.707 31.2738C26.2742 29.7766 27.2383 28.1523 28.7582 26.4634L30.4448 27.981C29.103 29.4726 28.2886 30.8507 27.8247 32.0757Z" fill="#FC4A4A"/>
<path fill-rule="evenodd" clip-rule="evenodd" d="M17.7634 7.93945C11.4932 7.93945 6.9165 14.3367 6.9165 21.2375C6.9165 36.6407 27.3332 46.5043 27.3332 46.5043C27.3332 46.5043 47.7498 36.0056 47.7498 21.2375C47.7498 14.3389 43.1731 7.93945 36.9029 7.93945C32.553 7.93945 29.3261 10.8103 27.3332 14.8823C25.3403 10.8103 22.1144 7.93945 17.7634 7.93945ZM19.3934 28.3096C19.3934 31.4935 22.9572 32.5098 25.5649 31.6636C24.3194 35.3511 25.4764 38.2242 26.5063 39.3357L28.1703 37.7932C27.7574 37.3485 26.8091 35.5088 27.5929 32.7775C28.962 35.3148 35.273 35.6347 35.273 30.8492V18.1478C32.0041 20.9142 28.5117 22.0077 25.6375 22.9083C22.0282 24.038 19.3934 24.8626 19.3934 28.3096Z" fill="#FC4A4A"/>
</svg>
