<svg width="55" height="55" viewBox="0 0 55 55" fill="none" xmlns="http://www.w3.org/2000/svg">
<path d="M48.1942 37.4306C48.1942 38.2927 47.7178 39.0413 46.9919 39.4269L29.0706 49.4991C28.7076 49.7714 28.2539 49.9075 27.7775 49.9075C27.3011 49.9075 26.8474 49.7714 26.4845 49.4991L8.56316 39.4269C8.19947 39.2358 7.89511 38.9487 7.68314 38.5967C7.47118 38.2448 7.35971 37.8415 7.36085 37.4306V17.014C7.36085 16.1519 7.83724 15.4033 8.56316 15.0177L26.4845 4.94544C26.8474 4.67322 27.3011 4.53711 27.7775 4.53711C28.2539 4.53711 28.7076 4.67322 29.0706 4.94544L46.9919 15.0177C47.7178 15.4033 48.1942 16.1519 48.1942 17.014V37.4306ZM11.8979 20.4167V34.0278H14.7335V29.4908H16.4349C17.6382 29.4908 18.7922 29.0128 19.6431 28.1619C20.494 27.3111 20.972 26.1571 20.972 24.9538C20.972 23.7505 20.494 22.5965 19.6431 21.7456C18.7922 20.8947 17.6382 20.4167 16.4349 20.4167H11.8979ZM14.7335 27.2223V22.6853H15.8678C16.4694 22.6853 17.0464 22.9243 17.4719 23.3497C17.8973 23.7751 18.1363 24.3521 18.1363 24.9538C18.1363 25.5554 17.8973 26.1324 17.4719 26.5579C17.0464 26.9833 16.4694 27.2223 15.8678 27.2223H14.7335ZM22.6733 20.4167V34.0278H25.509V29.4908H27.2104L28.7076 34.0278H31.7021L29.9099 28.6061C31.0215 27.7894 31.7474 26.451 31.7474 24.9538C31.7474 23.7505 31.2694 22.5965 30.4186 21.7456C29.5677 20.8947 28.4137 20.4167 27.2104 20.4167H22.6733ZM25.509 27.2223V22.6853H26.6433C27.2449 22.6853 27.8219 22.9243 28.2473 23.3497C28.6728 23.7751 28.9118 24.3521 28.9118 24.9538C28.9118 25.5554 28.6728 26.1324 28.2473 26.5579C27.8219 26.9833 27.2449 27.2223 26.6433 27.2223H25.509ZM39.1201 20.4167C35.9896 20.4167 33.4488 23.4566 33.4488 27.2223C33.4488 30.988 35.9896 34.0278 39.1201 34.0278C42.2507 34.0278 44.7914 30.988 44.7914 27.2223C44.7914 23.4566 42.2507 20.4167 39.1201 20.4167ZM39.1201 23.2524C40.8442 23.2524 42.2507 25.0218 42.2507 27.2223C42.2507 29.4228 40.8442 31.1922 39.1201 31.1922C37.396 31.1922 36.0122 29.4228 36.0122 27.2223C36.0122 25.0218 37.396 23.2524 39.1201 23.2524Z" fill="#3967BE"/>
</svg>
