<svg width="56" height="55" viewBox="0 0 56 55" fill="none" xmlns="http://www.w3.org/2000/svg">
<path d="M25.7883 38.5649H30.3254V24.9538H25.7883V38.5649ZM28.0568 20.4167C28.6996 20.4167 29.2387 20.199 29.6743 19.7634C30.1083 19.3294 30.3254 18.791 30.3254 18.1482C30.3254 17.5055 30.1083 16.9663 29.6743 16.5308C29.2387 16.0967 28.6996 15.8797 28.0568 15.8797C27.4141 15.8797 26.8757 16.0967 26.4417 16.5308C26.0061 16.9663 25.7883 17.5055 25.7883 18.1482C25.7883 18.791 26.0061 19.3294 26.4417 19.7634C26.8757 20.199 27.4141 20.4167 28.0568 20.4167ZM28.0568 49.9075C22.8014 48.5842 18.4633 45.5686 15.0423 40.8606C11.6199 36.1542 9.90869 30.9275 9.90869 25.1806V11.3427L28.0568 4.53711L46.205 11.3427V25.1806C46.205 30.9275 44.4945 36.1542 41.0736 40.8606C37.6512 45.5686 33.3122 48.5842 28.0568 49.9075Z" fill="#36CB4E"/>
</svg>
