<svg width="55" height="55" viewBox="0 0 55 55" fill="none" xmlns="http://www.w3.org/2000/svg">
<path d="M47.639 27.7214C47.639 15.2672 37.9751 6.80566 27.2223 6.80566C16.5829 6.80566 6.80563 15.0858 6.80563 27.8575C5.44452 28.6288 4.53711 30.0807 4.53711 31.7594V36.2964C4.53711 38.7918 6.57878 40.8334 9.07415 40.8334H11.3427V26.9955C11.3427 18.2163 18.4431 11.1158 27.2223 11.1158C36.0015 11.1158 43.1019 18.2163 43.1019 26.9955V43.102H24.9538V47.639H43.1019C45.5973 47.639 47.639 45.5973 47.639 43.102V40.3344C48.9774 39.6311 49.9075 38.2473 49.9075 36.614V31.3964C49.9075 29.8084 48.9774 28.4246 47.639 27.7214Z" fill="#27AE60"/>
<path d="M20.4165 31.7592C21.6693 31.7592 22.685 30.7436 22.685 29.4907C22.685 28.2378 21.6693 27.2222 20.4165 27.2222C19.1636 27.2222 18.1479 28.2378 18.1479 29.4907C18.1479 30.7436 19.1636 31.7592 20.4165 31.7592Z" fill="#27AE60"/>
<path d="M34.0278 31.7592C35.2807 31.7592 36.2963 30.7436 36.2963 29.4907C36.2963 28.2378 35.2807 27.2222 34.0278 27.2222C32.7749 27.2222 31.7593 28.2378 31.7593 29.4907C31.7593 30.7436 32.7749 31.7592 34.0278 31.7592Z" fill="#27AE60"/>
<path d="M40.8335 25.022C40.2926 21.8327 38.6408 18.9377 36.1704 16.8494C33.7001 14.761 30.5706 13.614 27.3358 13.6113C20.4622 13.6113 13.0668 19.3053 13.6567 28.2433C16.454 27.0986 18.9247 25.2794 20.8484 22.9481C22.772 20.6167 24.0889 17.8456 24.6817 14.8817C27.6534 20.8479 33.7557 24.9539 40.8335 25.022Z" fill="#27AE60"/>
</svg>
