<svg width="48" height="45" viewBox="0 0 48 45" fill="none" xmlns="http://www.w3.org/2000/svg">
<path d="M30 31.2938V24.375H33V29.6625L37.88 32.3062L36.38 34.7438L30 31.2938ZM39 6.5625L36 3.75L33 6.5625L30 3.75L27 6.5625L24 3.75L21 6.5625L18 3.75L15 6.5625L12 3.75L9 6.5625L6 3.75V41.25L9 38.4375L12 41.25L15 38.4375L18 41.25L21.16 38.2875C21.44 38.6437 21.76 38.9625 22.1 39.2812C24.7238 41.7044 28.2604 43.0607 31.9434 43.0564C35.6265 43.0522 39.1595 41.6876 41.7769 39.2584C44.3943 36.8292 45.8855 33.531 45.9272 30.0784C45.969 26.6257 44.558 23.2967 42 20.8125V3.75L39 6.5625ZM22.2 20.625C21 21.6938 20.06 22.9688 19.34 24.375H12V20.625H22.2ZM18.14 28.125C18 28.7437 18 29.3625 18 30C18 30.6375 18 31.2563 18.14 31.875H12V28.125H18.14ZM36 16.875H12V13.125H36V16.875ZM41.7 30C41.7 31.2 41.46 32.3813 41 33.4875C40.48 34.575 39.76 35.625 38.86 36.4313C38 37.275 36.88 37.95 35.72 38.4375C34.54 38.8688 33.28 39.0938 32 39.0938C26.64 39.0938 22.3 35.025 22.3 30C22.3 27.5812 23.32 25.3125 25.14 23.5687C27 21.8625 29.42 20.9062 32 20.9062C37.34 20.9062 41.7 24.975 41.7 30Z" fill="#36CB4E"/>
</svg>
