<svg width="48" height="45" viewBox="0 0 48 45" fill="none" xmlns="http://www.w3.org/2000/svg">
<path d="M18.5 24.375C18.5 26.4469 16.71 28.125 14.5 28.125C12.29 28.125 10.5 26.4469 10.5 24.375C10.5 22.3031 12.29 20.625 14.5 20.625C16.71 20.625 18.5 22.3031 18.5 24.375Z" fill="#383094"/>
<path fill-rule="evenodd" clip-rule="evenodd" d="M14.5 26.25C15.0304 26.25 15.5391 26.0525 15.9142 25.7008C16.2893 25.3492 16.5 24.8723 16.5 24.375C16.5 23.8777 16.2893 23.4008 15.9142 23.0492C15.5391 22.6975 15.0304 22.5 14.5 22.5C13.9696 22.5 13.4609 22.6975 13.0858 23.0492C12.7107 23.4008 12.5 23.8777 12.5 24.375C12.5 24.8723 12.7107 25.3492 13.0858 25.7008C13.4609 26.0525 13.9696 26.25 14.5 26.25ZM14.5 28.125C16.71 28.125 18.5 26.4469 18.5 24.375C18.5 22.3031 16.71 20.625 14.5 20.625C12.29 20.625 10.5 22.3031 10.5 24.375C10.5 26.4469 12.29 28.125 14.5 28.125Z" fill="#383094"/>
<path d="M6 34.2609C6 31.4278 11.663 30 14.5 30C17.337 30 23 31.4278 23 34.2609V39.375H6V34.2609Z" fill="#383094"/>
<path fill-rule="evenodd" clip-rule="evenodd" d="M8.334 33.7341C8.018 34.0266 8 34.1944 8 34.2619V37.5H21V34.2609C21 34.1953 20.982 34.0266 20.666 33.7341C20.332 33.4256 19.781 33.0947 19.026 32.7919C17.506 32.1816 15.65 31.875 14.5 31.875C13.35 31.875 11.493 32.1816 9.974 32.7919C9.219 33.0947 8.668 33.4256 8.334 33.7341ZM14.5 30C11.663 30 6 31.4278 6 34.2609V39.375H23V34.2609C23 31.4278 17.337 30 14.5 30Z" fill="#383094"/>
<path d="M37.5 24.375C37.5 26.4469 35.71 28.125 33.5 28.125C31.29 28.125 29.5 26.4469 29.5 24.375C29.5 22.3031 31.29 20.625 33.5 20.625C35.71 20.625 37.5 22.3031 37.5 24.375Z" fill="#383094"/>
<path fill-rule="evenodd" clip-rule="evenodd" d="M33.5 26.25C34.0304 26.25 34.5391 26.0525 34.9142 25.7008C35.2893 25.3492 35.5 24.8723 35.5 24.375C35.5 23.8777 35.2893 23.4008 34.9142 23.0492C34.5391 22.6975 34.0304 22.5 33.5 22.5C32.9696 22.5 32.4609 22.6975 32.0858 23.0492C31.7107 23.4008 31.5 23.8777 31.5 24.375C31.5 24.8723 31.7107 25.3492 32.0858 25.7008C32.4609 26.0525 32.9696 26.25 33.5 26.25ZM33.5 28.125C35.71 28.125 37.5 26.4469 37.5 24.375C37.5 22.3031 35.71 20.625 33.5 20.625C31.29 20.625 29.5 22.3031 29.5 24.375C29.5 26.4469 31.29 28.125 33.5 28.125Z" fill="#383094"/>
<path d="M28 22.5C28 24.5719 26.21 26.25 24 26.25C21.79 26.25 20 24.5719 20 22.5C20 20.4281 21.79 18.75 24 18.75C26.21 18.75 28 20.4281 28 22.5Z" fill="#383094"/>
<path fill-rule="evenodd" clip-rule="evenodd" d="M24 24.375C24.5304 24.375 25.0391 24.1775 25.4142 23.8258C25.7893 23.4742 26 22.9973 26 22.5C26 22.0027 25.7893 21.5258 25.4142 21.1742C25.0391 20.8225 24.5304 20.625 24 20.625C23.4696 20.625 22.9609 20.8225 22.5858 21.1742C22.2107 21.5258 22 22.0027 22 22.5C22 22.9973 22.2107 23.4742 22.5858 23.8258C22.9609 24.1775 23.4696 24.375 24 24.375ZM24 26.25C26.21 26.25 28 24.5719 28 22.5C28 20.4281 26.21 18.75 24 18.75C21.79 18.75 20 20.4281 20 22.5C20 24.5719 21.79 26.25 24 26.25Z" fill="#383094"/>
<path d="M23.0002 12.0309C23.0002 10.8293 22.491 9.6768 21.5847 8.82708C20.6783 7.97737 19.449 7.5 18.1672 7.5H14.9982C13.687 7.49802 12.4274 7.97923 11.4911 8.83988C10.5548 9.70052 10.0168 10.8717 9.99301 12.1008C9.96926 13.3299 10.4617 14.5185 11.3641 15.4104C12.2666 16.3022 13.5067 16.8259 14.8172 16.8684L15.0002 16.875V18.75C15.0002 18.75 23.0002 17.6559 23.0002 12.0309ZM26.0002 10.5338C26.0002 9.23187 26.5519 7.98331 27.5338 7.06274C28.5158 6.14217 29.8476 5.625 31.2362 5.625H37.0002C38.3263 5.625 39.5981 6.11886 40.5358 6.99794C41.4734 7.87701 42.0002 9.0693 42.0002 10.3125C42.0002 11.5557 41.4734 12.748 40.5358 13.6271C39.5981 14.5061 38.3263 15 37.0002 15H35.0002V17.8125C35.0002 17.8125 26.0002 16.6275 26.0002 10.5338ZM25.0002 34.2609C25.0002 31.4278 30.6632 30 33.5002 30C36.3372 30 42.0002 31.4278 42.0002 34.2609V39.375H25.0002V34.2609Z" fill="#383094"/>
<path fill-rule="evenodd" clip-rule="evenodd" d="M27.3341 33.7341C27.0181 34.0266 27.0001 34.1944 27.0001 34.2619V37.5H40.0001V34.2609C40.0001 34.1953 39.9821 34.0266 39.6661 33.7341C39.3321 33.4256 38.7811 33.0947 38.0261 32.7919C36.5061 32.1816 34.6501 31.875 33.5001 31.875C32.3501 31.875 30.4931 32.1816 28.9741 32.7919C28.2191 33.0947 27.6681 33.4256 27.3341 33.7341ZM33.5001 30C30.6631 30 25.0001 31.4278 25.0001 34.2609V39.375H42.0001V34.2609C42.0001 31.4278 36.3371 30 33.5001 30ZM24.0001 32.3859C24.0001 30.8137 22.1531 29.6738 19.9951 28.9706C21.2475 28.4158 22.615 28.1271 24.0001 28.125C25.3852 28.1271 26.7528 28.4158 28.0051 28.9706C25.8481 29.6738 24.0001 30.8137 24.0001 32.3859Z" fill="#383094"/>
<path fill-rule="evenodd" clip-rule="evenodd" d="M24.0001 32.3859C24.0001 31.5488 24.5241 30.8334 25.3401 30.2419C25.3869 30.2084 25.4342 30.1756 25.4821 30.1434C26.1781 29.6691 27.0621 29.2781 28.0051 28.9716C27.0685 28.5575 26.0659 28.2899 25.0371 28.1794C24.3483 28.1069 23.653 28.1069 22.9641 28.1794C21.935 28.2895 20.9321 28.5568 19.9951 28.9706C20.9381 29.2781 21.8221 29.6691 22.5191 30.1425C22.5671 30.1753 22.6131 30.2081 22.6591 30.2419C23.4761 30.8325 24.0001 31.5488 24.0001 32.3859Z" fill="#383094"/>
</svg>
