<svg width="48" height="45" viewBox="0 0 48 45" fill="none" xmlns="http://www.w3.org/2000/svg">
<path d="M20 22.5C24.4183 22.5 28 19.1421 28 15C28 10.8579 24.4183 7.5 20 7.5C15.5817 7.5 12 10.8579 12 15C12 19.1421 15.5817 22.5 20 22.5Z" fill="#3967BE"/>
<path d="M20.7 26.2688C15.24 26.0813 4 28.6312 4 33.75V37.5H23.08C18.14 32.325 20.62 26.4563 20.7 26.2688ZM38.86 33.7875C39.58 32.6813 40 31.3875 40 30C40 25.8562 36.42 22.5 32 22.5C27.58 22.5 24 25.8562 24 30C24 34.1438 27.58 37.5 32 37.5C33.48 37.5 34.86 37.0875 36.04 36.4313L41.18 41.25L44 38.6063L38.86 33.7875ZM32 33.75C29.8 33.75 28 32.0625 28 30C28 27.9375 29.8 26.25 32 26.25C34.2 26.25 36 27.9375 36 30C36 32.0625 34.2 33.75 32 33.75Z" fill="#3967BE"/>
</svg>
